<svg viewBox="-1000 -1000 2000 2000" xmlns="http://www.w3.org/2000/svg" xmlns:bx="https://boxy-svg.com">
  <defs>
    <bx:grid x="0" y="0" width="500" height="500"></bx:grid>
  </defs>
  <rect class="cls-3" x="73" y="-130" width="52" height="40" style="stroke: rgb(0, 150, 64); stroke-miterlimit: 10; fill: none;"></rect>
  <rect class="cls-3" x="87" y="-183" width="71" height="53" style="stroke: rgb(0, 150, 64); stroke-miterlimit: 10; fill: none;"></rect>
  <rect class="cls-3" x="123" y="-236" width="41" height="53" style="stroke: rgb(0, 150, 64); stroke-miterlimit: 10; fill: none;"></rect>
  <rect class="cls-3" x="158" y="-183" width="42" height="94" style="stroke: rgb(0, 150, 64); stroke-miterlimit: 10; fill: none;"></rect>
  <rect class="cls-3" x="125" y="-130" width="33" height="96" style="stroke: rgb(0, 150, 64); stroke-miterlimit: 10; fill: none;"></rect>
  <rect class="cls-3" x="158" y="-89" width="35" height="16" style="stroke: rgb(0, 150, 64); stroke-miterlimit: 10; fill: none;"></rect>
  <rect class="cls-3" x="174" y="-34" width="35" height="70" style="stroke: rgb(0, 150, 64); stroke-miterlimit: 10; fill: none;"></rect>
  <rect class="cls-3" x="155" y="4" width="19" height="39" style="stroke: rgb(0, 150, 64); stroke-miterlimit: 10; fill: none;"></rect>
  <rect class="cls-3" x="174" y="36" width="19" height="17" style="stroke: rgb(0, 150, 64); stroke-miterlimit: 10; fill: none;"></rect>
  <rect class="cls-3" x="89" y="-90" width="36" height="38" style="stroke: rgb(0, 150, 64); stroke-miterlimit: 10; fill: none;"></rect>
  <rect class="cls-3" x="89" y="-52" width="36" height="38" style="stroke: rgb(0, 150, 64); stroke-miterlimit: 10; fill: none;"></rect>
  <rect class="cls-3" x="125" y="-34" width="49" height="38" style="stroke: rgb(0, 150, 64); stroke-miterlimit: 10; fill: none;"></rect>
  <rect class="cls-3" x="158" y="-73" width="35" height="39" style="stroke: rgb(0, 150, 64); stroke-miterlimit: 10; fill: none;"></rect>
  <rect class="cls-4" x="89" width="36" height="51" style="stroke: rgb(54, 169, 225); stroke-miterlimit: 10; fill: none;" y="-14"></rect>
  <rect class="cls-4" x="125" y="4" width="30" height="50" style="stroke: rgb(54, 169, 225); stroke-miterlimit: 10; fill: none;"></rect>
  <rect class="cls-4" x="125" y="54" width="30" height="77" style="stroke: rgb(54, 169, 225); stroke-miterlimit: 10; fill: none;"></rect>
  <rect class="cls-4" x="50" y="86" width="75" height="29" style="stroke: rgb(54, 169, 225); stroke-miterlimit: 10; fill: none;"></rect>
  <rect class="cls-5" x="50" y="115" width="75" height="63" style="stroke: rgb(163, 25, 91); stroke-miterlimit: 10; fill: none;"></rect>
  <rect class="cls-5" x="23" y="121" width="27" height="57" style="stroke: rgb(163, 25, 91); stroke-miterlimit: 10; fill: none;"></rect>
  <rect class="cls-5" x="2" y="174" width="21" height="64" style="stroke: rgb(163, 25, 91); stroke-miterlimit: 10; fill: none;"></rect>
  <rect class="cls-5" x="23" y="178" width="38" height="71" style="stroke: rgb(163, 25, 91); stroke-miterlimit: 10; fill: none;"></rect>
  <rect class="cls-5" x="61" y="178" width="38" height="66" style="stroke: rgb(163, 25, 91); stroke-miterlimit: 10; fill: none;"></rect>
  <rect class="cls-5" x="61" y="244" width="52" height="27" style="stroke: rgb(163, 25, 91); stroke-miterlimit: 10; fill: none;"></rect>
  <rect class="cls-5" x="9" y="249" width="52" height="27" style="stroke: rgb(163, 25, 91); stroke-miterlimit: 10; fill: none;"></rect>
  <rect class="cls-5" x="61" y="271" width="52" height="28" style="stroke: rgb(163, 25, 91); stroke-miterlimit: 10; fill: none;"></rect>
  <rect class="cls-5" x="113" y="272" width="52" height="27" style="stroke: rgb(163, 25, 91); stroke-miterlimit: 10; fill: none;"></rect>
  <rect class="cls-5" x="171" y="326" width="52" height="27" style="stroke: rgb(163, 25, 91); stroke-miterlimit: 10; fill: none;"></rect>
  <rect class="cls-5" x="197" y="299" width="39" height="27" style="stroke: rgb(163, 25, 91); stroke-miterlimit: 10; fill: none;"></rect>
  <rect class="cls-5" x="218" y="272" width="50" height="27" style="stroke: rgb(163, 25, 91); stroke-miterlimit: 10; fill: none;"></rect>
  <rect class="cls-5" x="236" y="299" width="52" height="27" style="stroke: rgb(163, 25, 91); stroke-miterlimit: 10; fill: none;"></rect>
  <rect class="cls-5" x="268" y="272" width="52" height="27" style="stroke: rgb(163, 25, 91); stroke-miterlimit: 10; fill: none;"></rect>
  <rect class="cls-5" x="296" y="245" width="52" height="27" style="stroke: rgb(163, 25, 91); stroke-miterlimit: 10; fill: none;"></rect>
  <rect class="cls-5" x="318" y="218" width="31" height="27" style="stroke: rgb(163, 25, 91); stroke-miterlimit: 10; fill: none;"></rect>
  <rect class="cls-5" x="318" y="190" width="31" height="28" style="stroke: rgb(163, 25, 91); stroke-miterlimit: 10; fill: none;"></rect>
  <rect class="cls-5" x="295" y="133" width="54" height="57" style="stroke: rgb(163, 25, 91); stroke-miterlimit: 10; fill: none;"></rect>
  <rect class="cls-5" x="165" y="272" width="53" height="27" style="stroke: rgb(163, 25, 91); stroke-miterlimit: 10; fill: none;"></rect>
  <rect class="cls-5" x="244" y="245" width="52" height="27" style="stroke: rgb(163, 25, 91); stroke-miterlimit: 10; fill: none;"></rect>
  <rect class="cls-5" x="289" y="190" width="29" height="55" style="stroke: rgb(163, 25, 91); stroke-miterlimit: 10; fill: none;"></rect>
  <rect class="cls-5" x="349" y="186" width="29" height="55" style="stroke: rgb(163, 25, 91); stroke-miterlimit: 10; fill: none;"></rect>
  <rect class="cls-5" x="349" y="131" width="29" height="55" style="stroke: rgb(163, 25, 91); stroke-miterlimit: 10; fill: none;"></rect>
  <rect class="cls-5" x="378" y="115.164" width="29" height="67.836" style="stroke: rgb(163, 25, 91); stroke-miterlimit: 10; fill: none;"></rect>
  <rect class="cls-5" x="320" y="272" width="29" height="55" style="stroke: rgb(163, 25, 91); stroke-miterlimit: 10; fill: none;"></rect>
  <rect class="cls-5" x="93" y="299" width="52" height="27" style="stroke: rgb(163, 25, 91); stroke-miterlimit: 10; fill: none;"></rect>
  <rect class="cls-5" x="119" y="326" width="52" height="50" style="stroke: rgb(163, 25, 91); stroke-miterlimit: 10; fill: none;"></rect>
  <rect class="cls-5" x="145" y="299" width="52" height="27" style="stroke: rgb(163, 25, 91); stroke-miterlimit: 10; fill: none;"></rect>
  <rect class="cls-5" x="67" y="326" width="52" height="27" style="stroke: rgb(163, 25, 91); stroke-miterlimit: 10; fill: none;"></rect>
  <rect class="cls-5" x="41" y="299" width="52" height="27" style="stroke: rgb(163, 25, 91); stroke-miterlimit: 10; fill: none;"></rect>
  <rect class="cls-5" x="26" y="276" width="35" height="23" style="stroke: rgb(163, 25, 91); stroke-miterlimit: 10; fill: none;"></rect>
  <rect class="cls-5" x="99" y="195" width="21" height="49" style="stroke: rgb(163, 25, 91); stroke-miterlimit: 10; fill: none;"></rect>
  <rect class="cls-5" x="99" y="178" width="56" height="17" style="stroke: rgb(163, 25, 91); stroke-miterlimit: 10; fill: none;"></rect>
  <rect class="cls-5" x="125" y="131" width="30" height="47" style="stroke: rgb(163, 25, 91); stroke-miterlimit: 10; fill: none;"></rect>
  <rect class="cls-5" x="155" y="137" width="10" height="58" style="stroke: rgb(163, 25, 91); stroke-miterlimit: 10; fill: none;"></rect>
  <rect class="cls-5" x="165" y="171" width="34" height="20" style="stroke: rgb(163, 25, 91); stroke-miterlimit: 10; fill: none;"></rect>
  <rect class="cls-5" x="165" y="191" width="23" height="40" style="stroke: rgb(163, 25, 91); stroke-miterlimit: 10; fill: none;"></rect>
  <rect class="cls-5" x="2" y="238" width="21" height="11" style="stroke: rgb(163, 25, 91); stroke-miterlimit: 10; fill: none;"></rect>
  <rect class="cls-4" x="23" y="59" width="51" height="27" style="stroke: rgb(54, 169, 225); stroke-miterlimit: 10; fill: none;"></rect>
  <rect class="cls-4" x="23" y="86" width="27" height="35" style="stroke: rgb(54, 169, 225); stroke-miterlimit: 10; fill: none;"></rect>
  <rect class="cls-4" x="155" y="53" width="30" height="50" style="stroke: rgb(54, 169, 225); stroke-miterlimit: 10; fill: none;"></rect>
  <rect class="cls-4" x="185" y="53" width="52" height="50" style="stroke: rgb(54, 169, 225); stroke-miterlimit: 10; fill: none;"></rect>
  <rect class="cls-4" x="209" y="-27" width="51" height="80" style="stroke: rgb(54, 169, 225); stroke-miterlimit: 10; fill: none;"></rect>
  <rect class="cls-4" x="260" y="-17" width="34" height="53" style="stroke: rgb(54, 169, 225); stroke-miterlimit: 10; fill: none;"></rect>
  <rect class="cls-4" x="260" y="-70" width="34" height="53" style="stroke: rgb(54, 169, 225); stroke-miterlimit: 10; fill: none;"></rect>
  <rect class="cls-4" x="294" y="-65" width="50" height="89" style="stroke: rgb(54, 169, 225); stroke-miterlimit: 10; fill: none;"></rect>
  <rect class="cls-4" x="344" y="-65" width="26" height="50" style="stroke: rgb(54, 169, 225); stroke-miterlimit: 10; fill: none;"></rect>
  <rect class="cls-4" x="294" y="-155" width="84" height="90" style="stroke: rgb(54, 169, 225); stroke-miterlimit: 10; fill: none;"></rect>
  <rect class="cls-4" x="245" y="-161" width="49" height="91" style="stroke: rgb(54, 169, 225); stroke-miterlimit: 10; fill: none;"></rect>
  <rect class="cls-4" x="294" y="-244" width="49" height="89" style="stroke: rgb(54, 169, 225); stroke-miterlimit: 10; fill: none;"></rect>
  <rect class="cls-4" x="343" y="-318" width="49" height="163" style="stroke: rgb(54, 169, 225); stroke-miterlimit: 10; fill: none;"></rect>
  <rect class="cls-4" x="294" y="-407" width="49" height="163" style="stroke: rgb(54, 169, 225); stroke-miterlimit: 10; fill: none;"></rect>
  <rect class="cls-4" x="226" y="-355" width="68" height="105" style="stroke: rgb(54, 169, 225); stroke-miterlimit: 10; fill: none;"></rect>
  <rect class="cls-4" x="151" y="-379" width="143" height="24" style="stroke: rgb(54, 169, 225); stroke-miterlimit: 10; fill: none;"></rect>
  <rect class="cls-4" x="271" y="-250" width="23" height="89" style="stroke: rgb(54, 169, 225); stroke-miterlimit: 10; fill: none;"></rect>
  <rect class="cls-4" x="237" y="53" width="57" height="53" style="stroke: rgb(54, 169, 225); stroke-miterlimit: 10; fill: none;"></rect>
  <rect class="cls-4" x="260" y="36" width="34" height="17" style="stroke: rgb(54, 169, 225); stroke-miterlimit: 10; fill: none;"></rect>
  <rect class="cls-4" x="193" y="36" width="16" height="17" style="stroke: rgb(54, 169, 225); stroke-miterlimit: 10; fill: none;"></rect>
  <rect class="cls-4" x="185" y="103" width="52" height="34" style="stroke: rgb(54, 169, 225); stroke-miterlimit: 10; fill: none;"></rect>
  <rect class="cls-4" x="165" y="137" width="64" height="34" style="stroke: rgb(54, 169, 225); stroke-miterlimit: 10; fill: none;"></rect>
  <rect class="cls-4" x="155" y="103" width="30" height="34" style="stroke: rgb(54, 169, 225); stroke-miterlimit: 10; fill: none;"></rect>
  <rect class="cls-4" x="74" y="37" width="51" height="49" style="stroke: rgb(54, 169, 225); stroke-miterlimit: 10; fill: none;"></rect>
  <rect class="cls-2" x="-74" y="-130" width="95" height="52" style="stroke: rgb(249, 178, 51); stroke-miterlimit: 10; fill: none;"></rect>
  <rect class="cls-2" x="-59" y="-183" width="97" height="53" style="stroke: rgb(249, 178, 51); stroke-miterlimit: 10; fill: none;"></rect>
  <rect class="cls-2" x="21" y="-130" width="52" height="40" style="stroke: rgb(249, 178, 51); stroke-miterlimit: 10; fill: none;"></rect>
  <rect class="cls-2" x="38" y="-183" width="49" height="53" style="stroke: rgb(249, 178, 51); stroke-miterlimit: 10; fill: none;"></rect>
  <rect class="cls-2" x="75" y="-236" width="48" height="53" style="stroke: rgb(249, 178, 51); stroke-miterlimit: 10; fill: none;"></rect>
  <rect class="cls-2" x="13" y="-264" width="101" height="28" style="stroke: rgb(249, 178, 51); stroke-miterlimit: 10; fill: none;"></rect>
  <rect class="cls-2" x="47" y="-292" width="101" height="28" style="stroke: rgb(249, 178, 51); stroke-miterlimit: 10; fill: none;"></rect>
  <rect class="cls-2" y="-292" width="34" height="56" style="stroke: rgb(249, 178, 51); stroke-miterlimit: 10; fill: none;" x="-21"></rect>
  <rect class="cls-2" x="-115" y="-361" width="94" height="99" style="stroke: rgb(249, 178, 51); stroke-miterlimit: 10; fill: none;"></rect>
  <rect class="cls-6" x="-153" y="-262" width="94" height="58" style="stroke: rgb(249, 178, 51); stroke-miterlimit: 10; fill: none;"></rect>
  <rect class="cls-2" x="-209" y="-319" width="94" height="57" style="stroke: rgb(249, 178, 51); stroke-miterlimit: 10; fill: none;"></rect>
  <rect class="cls-2" x="-247" y="-262" width="94" height="57" style="stroke: rgb(249, 178, 51); stroke-miterlimit: 10; fill: none;"></rect>
  <rect class="cls-2" x="-303" y="-319" width="94" height="57" style="stroke: rgb(249, 178, 51); stroke-miterlimit: 10; fill: none;"></rect>
  <rect class="cls-2" x="-341" y="-262" width="94" height="57" style="stroke: rgb(249, 178, 51); stroke-miterlimit: 10; fill: none;"></rect>
  <rect class="cls-2" x="-403" y="-205" width="94" height="57" style="stroke: rgb(249, 178, 51); stroke-miterlimit: 10; fill: none;"></rect>
  <rect class="cls-2" x="-442" y="-148" width="72" height="57" style="stroke: rgb(249, 178, 51); stroke-miterlimit: 10; fill: none;"></rect>
  <rect class="cls-2" x="-442" y="-91" width="32" height="91" style="stroke: rgb(249, 178, 51); stroke-miterlimit: 10; fill: none;"></rect>
  <rect class="cls-2" y="-236" width="96" height="53" style="stroke: rgb(249, 178, 51); stroke-miterlimit: 10; fill: none;" x="-21"></rect>
  <rect class="cls-2" x="-59" y="-262" width="38" height="79" style="stroke: rgb(249, 178, 51); stroke-miterlimit: 10; fill: none;"></rect>
  <rect class="cls-2" x="-91" y="-204" width="32" height="41" style="stroke: rgb(249, 178, 51); stroke-miterlimit: 10; fill: none;"></rect>
  <rect class="cls-2" x="-74" y="-78" width="40" height="65" style="stroke: rgb(249, 178, 51); stroke-miterlimit: 10; fill: none;"></rect>
  <rect class="cls-2" x="-69" y="6" width="18" height="65" style="stroke: rgb(249, 178, 51); stroke-miterlimit: 10; fill: none;"></rect>
  <rect class="cls-7" x="-91" y="6" width="22" height="65" style="stroke: rgb(233, 78, 27); stroke-miterlimit: 10; fill: none;"></rect>
  <rect class="cls-7" x="-123" width="32" height="84" style="stroke: rgb(233, 78, 27); stroke-miterlimit: 10; fill: none;" y="-13"></rect>
  <rect class="cls-7" x="-123" y="71" width="72" height="47" style="stroke: rgb(233, 78, 27); stroke-miterlimit: 10; fill: none;"></rect>
  <rect class="cls-7" x="-92" y="118" width="32" height="56" style="stroke: rgb(233, 78, 27); stroke-miterlimit: 10; fill: none;"></rect>
  <rect class="cls-7" x="-120" y="118" width="28" height="65" style="stroke: rgb(233, 78, 27); stroke-miterlimit: 10; fill: none;"></rect>
  <rect class="cls-7" x="-179" y="118" width="59" height="65" style="stroke: rgb(233, 78, 27); stroke-miterlimit: 10; fill: none;"></rect>
  <rect class="cls-7" x="-207" y="52" width="84" height="66" style="stroke: rgb(233, 78, 27); stroke-miterlimit: 10; fill: none;"></rect>
  <rect class="cls-2" y="-78" width="55" height="28" style="stroke-miterlimit: 10; fill: none; stroke: rgb(67, 41, 24);" x="-34"></rect>
  <rect class="cls-7" x="-201" width="78" height="65" style="stroke: rgb(233, 78, 27); stroke-miterlimit: 10; fill: none;" y="-13"></rect>
  <rect class="cls-7" x="-287" width="86" height="65" style="stroke: rgb(233, 78, 27); stroke-miterlimit: 10; fill: none;" y="-13"></rect>
  <rect class="cls-7" x="-324" y="52" width="62" height="65" style="stroke: rgb(233, 78, 27); stroke-miterlimit: 10; fill: none;"></rect>
  <rect class="cls-7" x="-262" y="52" width="55" height="41" style="stroke: rgb(233, 78, 27); stroke-miterlimit: 10; fill: none;"></rect>
  <rect class="cls-7" x="-304" y="24" width="17" height="28" style="stroke: rgb(233, 78, 27); stroke-miterlimit: 10; fill: none;"></rect>
  <rect class="cls-7" x="-320" y="24" width="16" height="28" style="stroke: rgb(233, 78, 27); stroke-miterlimit: 10; fill: none;"></rect>
  <rect class="cls-7" x="-338" width="51" height="37" style="stroke: rgb(233, 78, 27); stroke-miterlimit: 10; fill: none;" y="-13"></rect>
  <rect class="cls-7" x="-282" y="117" width="39" height="59" style="stroke: rgb(233, 78, 27); stroke-miterlimit: 10; fill: none;"></rect>
  <rect class="cls-7" x="-321" y="117" width="39" height="87" style="stroke: rgb(233, 78, 27); stroke-miterlimit: 10; fill: none;"></rect>
  <rect class="cls-7" x="-360" y="167" width="39" height="87" style="stroke: rgb(233, 78, 27); stroke-miterlimit: 10; fill: none;"></rect>
  <rect class="cls-7" x="-321" y="204" width="39" height="87" style="stroke: rgb(233, 78, 27); stroke-miterlimit: 10; fill: none;"></rect>
  <rect class="cls-7" x="-282" y="176" width="39" height="88" style="stroke: rgb(233, 78, 27); stroke-miterlimit: 10; fill: none;"></rect>
  <rect class="cls-7" x="-282" y="264" width="72" height="48" style="stroke: rgb(233, 78, 27); stroke-miterlimit: 10; fill: none;"></rect>
  <rect class="cls-7" x="-252" y="312" width="72" height="48" style="stroke: rgb(233, 78, 27); stroke-miterlimit: 10; fill: none;"></rect>
  <rect class="cls-7" x="-210" y="264" width="45" height="48" style="stroke: rgb(233, 78, 27); stroke-miterlimit: 10; fill: none;"></rect>
  <rect class="cls-7" x="-180" y="312" width="45" height="71" style="stroke: rgb(233, 78, 27); stroke-miterlimit: 10; fill: none;"></rect>
  <rect class="cls-7" x="-131" y="-48" width="29" height="35" style="stroke: rgb(233, 78, 27); stroke-miterlimit: 10; fill: none;"></rect>
  <rect class="cls-7" x="-185" y="-83" width="54" height="70" style="stroke: rgb(233, 78, 27); stroke-miterlimit: 10; fill: none;"></rect>
  <rect class="cls-7" x="-172" y="-153" width="54" height="70" style="stroke: rgb(233, 78, 27); stroke-miterlimit: 10; fill: none;"></rect>
  <rect class="cls-7" x="-118" y="-161" width="26" height="59" style="stroke: rgb(233, 78, 27); stroke-miterlimit: 10; fill: none;"></rect>
  <rect class="cls-7" x="-92" y="-130" width="18" height="12" style="stroke: rgb(233, 78, 27); stroke-miterlimit: 10; fill: none;"></rect>
  <rect class="cls-7" x="-92" y="-163" width="33" height="33" style="stroke: rgb(233, 78, 27); stroke-miterlimit: 10; fill: none;"></rect>
  <rect class="cls-7" x="-198" y="-114" width="26" height="31" style="stroke: rgb(233, 78, 27); stroke-miterlimit: 10; fill: none;"></rect>
  <rect class="cls-7" x="-229" y="-83" width="44" height="70" style="stroke: rgb(233, 78, 27); stroke-miterlimit: 10; fill: none;"></rect>
  <rect class="cls-7" x="-259" y="-53" width="30" height="40" style="stroke: rgb(233, 78, 27); stroke-miterlimit: 10; fill: none;"></rect>
  <rect class="cls-7" x="-171" y="183" width="35" height="49" style="stroke: rgb(233, 78, 27); stroke-miterlimit: 10; fill: none;"></rect>
  <rect class="cls-7" x="-136" y="221" width="44" height="27" style="stroke: rgb(233, 78, 27); stroke-miterlimit: 10; fill: none;"></rect>
  <rect class="cls-7" x="-92" y="214" width="19" height="41" style="stroke: rgb(233, 78, 27); stroke-miterlimit: 10; fill: none;"></rect>
  <rect class="cls-7" x="-92" y="174" width="39" height="40" style="stroke: rgb(233, 78, 27); stroke-miterlimit: 10; fill: none;"></rect>
  <rect class="cls-2" y="37" width="26" height="59" style="stroke: rgb(249, 178, 51); stroke-miterlimit: 10; fill: none;" x="-34"></rect>
  <rect class="cls-2" x="-51" y="52" width="17" height="66" style="stroke: rgb(249, 178, 51); stroke-miterlimit: 10; fill: none;"></rect>
  <rect class="cls-2" y="59" width="31" height="115" style="stroke: rgb(249, 178, 51); stroke-miterlimit: 10; fill: none;" x="-8"></rect>
  <rect class="cls-2" y="174" width="21" height="78" style="stroke: rgb(249, 178, 51); stroke-miterlimit: 10; fill: none;" x="-19"></rect>
  <rect class="cls-2" y="96" width="26" height="78" style="stroke: rgb(249, 178, 51); stroke-miterlimit: 10; fill: none;" x="-34"></rect>
  <rect class="cls-2" x="-60" y="118" width="26" height="56" style="stroke: rgb(249, 178, 51); stroke-miterlimit: 10; fill: none;"></rect>
  <rect class="cls-2" x="-136" y="183" width="44" height="38" style="stroke: rgb(249, 178, 51); stroke-miterlimit: 10; fill: none;"></rect>
  <rect class="cls-2" x="-53" y="174" width="34" height="52" style="stroke: rgb(249, 178, 51); stroke-miterlimit: 10; fill: none;"></rect>
  <rect class="cls-2" x="-51" width="17" height="65" style="stroke: rgb(249, 178, 51); stroke-miterlimit: 10; fill: none;" y="-13"></rect>
  <rect class="cls-2" x="-91" width="40" height="19" style="stroke: rgb(249, 178, 51); stroke-miterlimit: 10; fill: none;" y="-13"></rect>
  <rect class="cls-2" x="-102" y="-48" width="28" height="35" style="stroke: rgb(249, 178, 51); stroke-miterlimit: 10; fill: none;"></rect>
  <rect class="cls-2" x="-131" y="-83" width="57" height="35" style="stroke: rgb(249, 178, 51); stroke-miterlimit: 10; fill: none;"></rect>
  <rect class="cls-2" x="-92" y="-118" width="18" height="35" style="stroke: rgb(249, 178, 51); stroke-miterlimit: 10; fill: none;"></rect>
  <rect class="cls-2" x="-118" y="-102" width="26" height="19" style="stroke: rgb(249, 178, 51); stroke-miterlimit: 10; fill: none;"></rect>
  <rect class="cls-1" y="-50" width="34" height="37" style="stroke: rgb(67, 41, 24); stroke-miterlimit: 10; fill: none;" x="-34"></rect>
  <rect class="cls-1" y="-13" width="34" height="50" style="stroke: rgb(67, 41, 24); stroke-miterlimit: 10; fill: none;" x="-34"></rect>
  <rect class="cls-3" x="155" y="43" width="19" height="10" style="stroke: rgb(0, 150, 64); stroke-miterlimit: 10; fill: none;"></rect>
  <rect class="cls-1" y="37" width="82" height="22" style="stroke: rgb(67, 41, 24); stroke-miterlimit: 10; fill: none;" x="-8"></rect>
  <rect class="cls-1" width="50" height="37" style="stroke: rgb(67, 41, 24); stroke-miterlimit: 10; fill: none;"></rect>
  <rect class="cls-1" width="39" height="87" style="stroke: rgb(67, 41, 24); stroke-miterlimit: 10; fill: none;" x="50" y="-50"></rect>
  <rect class="cls-1" width="68" height="40" style="stroke: rgb(67, 41, 24); stroke-miterlimit: 10; fill: none;" y="-90" x="21"></rect>
  <rect class="cls-1" y="-50" width="50" height="50" style="stroke: rgb(67, 41, 24); stroke-miterlimit: 10; fill: none;" x="0"></rect>
</svg>